#tb 0: 1/25
0,          0,          0,        1,   152064, 0xa950d0d9
0,          1,          1,        1,   152064, 0x6a6933c3
0,          2,          2,        1,   152064, 0x66a1da3a
0,          3,          3,        1,   152064, 0xe591aa12
0,          4,          4,        1,   152064, 0x42413288
